<?xml version="1.0" encoding="UTF-8"?>
<svg width="512" height="512" version="1.1" viewBox="0 0 135.47 135.47" xmlns="http://www.w3.org/2000/svg">
 <g fill="#478cbf">
  <path d="m67.733 3.1757c-35.701 0-64.558 28.857-64.558 64.558 0 35.7 28.857 64.56 64.558 64.56 35.7 0 64.558-28.86 64.558-64.56 0-35.701-28.858-64.558-64.558-64.558zm0 6.6146c31.995 0 57.943 25.948 57.943 57.943 0 31.995-25.948 57.943-57.943 57.943s-57.943-25.948-57.943-57.943c0-31.995 25.948-57.943 57.943-57.943z"/>
  <path d="m67.733 16.201c-28.445 0-51.49 23.045-51.49 51.49s23.045 51.49 51.49 51.49 51.49-23.045 51.49-51.49-23.045-51.49-51.49-51.49zm0 6.6146c24.798 0 44.875 20.077 44.875 44.875s-20.077 44.875-44.875 44.875-44.875-20.077-44.875-44.875 20.077-44.875 44.875-44.875z"/>
  <path d="m67.733 29.226c-21.189 0-38.421 17.232-38.421 38.421s17.232 38.421 38.421 38.421 38.421-17.232 38.421-38.421-17.232-38.421-38.421-38.421zm0 6.6146c17.6 0 31.806 14.207 31.806 31.806s-14.207 31.806-31.806 31.806-31.806-14.207-31.806-31.806 14.206-31.806 31.806-31.806z"/>
  <path d="m67.733 42.251c-13.933 0-25.353 11.42-25.353 25.353s11.42 25.353 25.353 25.353 25.353-11.42 25.353-25.353-11.42-25.353-25.353-25.353zm0 6.6146c10.403 0 18.738 8.335 18.738 18.738s-8.335 18.738-18.738 18.738-18.738-8.335-18.738-18.738 8.335-18.738 18.738-18.738z"/>
  <path d="m67.733 55.277c-6.6769 0-12.284 5.607-12.284 12.284s5.607 12.284 12.284 12.284 12.284-5.607 12.284-12.284-5.607-12.284-12.284-12.284z"/>
 </g>
</svg>
